<?xml version="1.0" encoding="UTF-8"?>
<svg xmlns="http://www.w3.org/2000/svg" xmlns:xlink="http://www.w3.org/1999/xlink" width="150px" height="91px" viewBox="0 0 149 91" version="1.1">
<g id="surface1">
<path style=" stroke:none;fill-rule:nonzero;fill:rgb(0%,0%,0%);fill-opacity:1;" d="M 38.726562 2.011719 L 75.800781 2.011719 L 93.167969 23.050781 L 110.550781 2.011719 L 150.066406 2.011719 L 113.023438 46.882812 L 150.066406 91.792969 L 110.476562 91.792969 L 93.167969 70.867188 L 75.945312 91.792969 L 38.726562 91.792969 L 1.535156 46.882812 Z M 5.132812 46.882812 L 39.996094 89.011719 L 72.421875 89.011719 L 37.558594 46.902344 L 55.371094 25.164062 L 39.226562 5.707031 Z M 75.164062 44.734375 L 91.359375 25.164062 L 74.535156 4.808594 L 42.039062 4.761719 Z M 41.15625 46.882812 L 57.277344 66.351562 L 73.347656 46.910156 L 57.15625 27.347656 Z M 75.351562 88.167969 L 91.375 68.65625 L 75.164062 49.097656 L 59.074219 68.519531 Z M 78.113281 45.523438 L 110.53125 45.542969 L 144.246094 4.792969 L 111.816406 4.792969 Z M 111.816406 89.027344 L 144.257812 89.027344 L 110.515625 48.332031 L 78.113281 48.332031 Z M 111.816406 89.027344 "/>
</g>
</svg>
